<svg width="146" height="87" viewBox="0 0 146 87" fill="none" style="width: 200px; height: auto; max-height: 80px; margin: 0px;"><path d="M108.128 48.678c-.643-3.78-1.002-7.956-1.002-12.34 0-4.044.303-7.88.851-11.414 3.042-.17 5.234-.643 5.234-1.19 0-.53-1.984-.965-4.818-1.154 1.927-9.958 5.895-16.78 10.469-16.78 2.645 0 5.083 2.267 7.029 6.104-3.326.566-5.933 1.474-5.82 2.003.113.529 2.91.491 6.255-.076.151-.019.283-.057.435-.075 2.286 5.404 3.741 13.133 3.836 21.731-2.948.19-5.046.643-5.046 1.172 0 .529 2.079.983 5.027 1.172-.284 15.646-5.102 28.194-11.112 29.007v12.34h-1.247v-12.34c-4.214-.567-7.823-6.917-9.713-16.044 2.079-.227 3.439-.605 3.439-1.04.019-.453-1.512-.869-3.817-1.076z" fill="#F6F7FB"></path><path d="M114.175 73.281c.68 1.399 1.436 2.344 1.757 2.212.322-.152.133-1.323-.396-2.76a7.564 7.564 0 012.078-.302 7.4 7.4 0 014.762 1.739 11.803 11.803 0 014.611-5.046c.567 1.72 1.323 3.005 1.701 2.891.397-.132.246-1.7-.34-3.496 0-.019-.019-.037-.019-.075a11.192 11.192 0 014.365-.888c3.156 0 6.028 1.323 8.107 3.439-1.02 1.474-1.606 2.816-1.285 3.042.302.208 1.266-.604 2.268-1.89a12.098 12.098 0 012.437 7.03h-33.939a7.34 7.34 0 013.893-5.896z" fill="#F6F7FB"></path><path d="M56.5 81.634c-29.702 0-53.78-.71-53.78-1.587S26.798 78.46 56.5 78.46c29.704 0 53.782.71 53.782 1.587s-24.078 1.587-53.781 1.587z" fill="#E4EAF1"></path><path d="M52.91 80.198h-5.083c-4.12 0-7.445-4.309-7.445-9.638s3.326-9.637 7.445-9.637h5.083s4.139 9.637 0 19.275zM101.23 80.198h-4.762c-3.855 0-6.992-4.384-6.992-9.77 0-5.386 3.137-9.77 6.992-9.77h4.762s3.874 9.77 0 19.54z" fill="#707F8C"></path><path d="M108.525 70.428c0 5.405-3.307 9.77-7.389 9.77-4.082 0-7.389-4.384-7.389-9.77 0-5.385 3.326-9.996 7.389-9.77 4.932.265 7.389 4.366 7.389 9.77z" fill="#8A99A9"></path><path d="M24.47 80.198h-4.8c-3.893 0-7.389-4.025-7.861-9.222-.491-5.442 2.532-10.053 6.784-10.053h5.235s4.403 10.053.642 19.275z" fill="#707F8C"></path><path d="M31.519 70.976c0 5.197-3.156 9.222-7.03 9.222s-7.294-4.025-7.653-9.222c-.36-5.442 2.759-10.053 7.01-10.053 4.233 0 7.673 4.61 7.673 10.053z" fill="#8A99A9"></path><path d="M75.153 80.198h-4.838c-3.912 0-7.087-4.309-7.087-9.638s3.175-9.637 7.087-9.637h4.838s3.93 9.637 0 19.275z" fill="#707F8C"></path><path d="M75.152 80.198c-3.913 0-7.086-4.315-7.086-9.638 0-5.322 3.173-9.637 7.086-9.637 3.914 0 7.087 4.315 7.087 9.637 0 5.323-3.173 9.638-7.087 9.638z" fill="#8A99A9"></path><path d="M101.212 76.494c-2.547 0-4.611-2.758-4.611-6.16 0-3.403 2.064-6.16 4.611-6.16 2.546 0 4.611 2.757 4.611 6.16 0 3.402-2.065 6.16-4.611 6.16z" fill="#D9DAE8"></path><path d="M52.91 80.198c-4.111 0-7.445-4.315-7.445-9.638 0-5.322 3.333-9.637 7.445-9.637 4.113 0 7.446 4.315 7.446 9.637 0 5.323-3.334 9.638-7.446 9.638z" fill="#8A99A9"></path><path d="M2.303 72.412a75.287 75.287 0 01-.113-8.466 8.744 8.744 0 014.932-7.502c3.685-1.795 9.883-4.025 19.597-5.48l10.96-5.726a28.15 28.15 0 0112.472-3.194c6.784-.15 18.141-.32 31.256-.245a28.117 28.117 0 0114.324 3.987c2.608 1.569 5.575 3.496 8.334 5.631.264.208.567.36.869.473l5.253 1.814s1.569.718 2.117 3.912c.567 3.326.094 14.267-2.684 14.267l-1.171.057s1.171-10.224-6.784-11.168c-7.276-.85-9.808 7.785-9.865 12.774 0 .718-.566 1.285-1.285 1.285H61.546a1.283 1.283 0 01-1.285-1.323c.132-3.363-.151-11.716-6.916-12.472-7.276-.813-9.638 5.896-9.997 11.376a2.583 2.583 0 01-2.57 2.42H4.855c-1.342 0-2.457-1.06-2.552-2.42z" fill="#E4EAF1"></path><path d="M45.54 57.748l-1.152 4.422c-3.42 3.023-3.969 9.524-3.969 9.524H2.247c.019.246.019.473.038.737a2.582 2.582 0 002.57 2.419h35.923a2.582 2.582 0 002.57-2.419c.378-5.48 2.722-12.188 9.997-11.376 6.765.756 7.049 9.108 6.916 12.472a1.272 1.272 0 001.285 1.323h28.989c.718 0 1.266-.567 1.285-1.285.056-4.989 2.589-13.625 9.864-12.774 7.937.925 6.784 11.168 6.784 11.168l1.172-.057c2.796 0 3.25-10.922 2.683-14.267a9.85 9.85 0 00-.34-1.342c-1.096.189-1.833.416-1.833.416-27.118-1.323-64.61 1.039-64.61 1.039z" fill="#C8D0DB"></path><path d="M25.49 63.946l-2.55-2.89a3.599 3.599 0 00-2.665-1.21H8.143c-1.304 0-2.494.699-3.118 1.833L3.76 63.927l.208.53a2.786 2.786 0 002.608 1.795h15.57c.795 0 1.532-.34 2.06-.926l1.286-1.38z" fill="#707F8C"></path><path d="M27.135 59.657c2.985-.548 11.98-2.098 18.009-2.041.15 0 .283.038.397.113l1.285.832a.74.74 0 01.113 1.171l-2.551 2.42a.72.72 0 01-.491.207l-14.835.34c-.151 0-.321-.057-.416-.17l-1.814-1.928c-.302-.32-.132-.869.303-.944zM5.309 57.635l-.34 2.305S2.87 63.096 2.19 63.946c0 0-.227-3.666 3.118-6.311z" fill="#fff"></path><path d="M18.669 71.675H9.107a2.661 2.661 0 01-2.665-2.664h14.891c.02 1.474-1.19 2.664-2.664 2.664z" fill="#707F8C"></path><path opacity="0.2" d="M55.48 50.662s-1.965 1.55-4.384 2.324c-2.418.794-20.125 6.047-35.961 5.688 0 0 11.13-5.82 21.108-7.71l19.237-.302z" fill="#fff"></path><path d="M60.64 51.72h40.08c.435 0 .605-.567.246-.813l-5.67-3.911a22.603 22.603 0 00-12.85-3.988h-9.882a7.302 7.302 0 00-4.214 1.342l-8.202 5.84c-.661.472-.321 1.53.491 1.53zM65.515 43.008h-22.11a27.451 27.451 0 00-5.726 2.23l-10.96 5.726H54.44c.378 0 .737-.113 1.04-.302l10.317-6.671c.454-.283.246-.983-.283-.983z" fill="#8A99A9"></path><path d="M52.91 76.494c-2.546 0-4.61-2.758-4.61-6.16 0-3.403 2.064-6.16 4.61-6.16 2.547 0 4.611 2.757 4.611 6.16 0 3.402-2.064 6.16-4.61 6.16zM61.509 51.72l1.303-1.077c.53-.435 1.21-.68 1.89-.68h1.928c.472 0 .869.377.869.869v1.02c0 .473-.378.87-.87.87h-5.12V51.72zM78.422 42.479l.585 10.242h2.684L80.066 42.48h-1.644z" fill="#D9DAE8"></path><path opacity="0.2" d="M45.144 57.635s39.854-3.175 66.234-2.703l-1.228 1.777s-42.991-.416-65.006.925z" fill="#fff"></path><path d="M111.378 54.933l-1.228 1.776s.605 2.343 1.039 2.816c.435.472 1.342.302 1.342.302s.019-3.685-1.153-4.894z" fill="#E4EAF1"></path><path opacity="0.2" d="M60.3 72.941l29.951-.264-29.97-1.134c.037.491.037.983.018 1.398z" fill="#fff"></path><path d="M19.689 28.628a5.801 5.801 0 110-11.603 5.801 5.801 0 010 11.603zM78.667 24.602H39.474s12.718-5.574 16.006-3.628c1.493.888 1.852 2.136 1.852 2.136s5.14-7.956 13.512-8.107c8.371-.151 10.431 5.933 7.823 9.6z" fill="#F6F7FB"></path></svg>