<svg width="16" height="14" viewBox="0 0 16 14" fill="none"><path d="M13 4.5l-.334-1.914C12.386 1.653 11.64 1 10.613 1H5.386c-.933 0-1.773.653-2.053 1.586L3 4.5M15 11H1V6.861C1 5.827 1.746 5 2.68 5h10.64c.933 0 1.68.827 1.68 1.862V10.999zM13.891 13h-1.167c-.414 0-.724-.283-.724-.66V11h3v1.01c0 1.01-.695.99-1.109.99zM2.891 13H1.724C1.31 13 1 12.716 1 12.34V11h3v1.01c0 1.01-.695.99-1.109.99z" stroke="#373737" stroke-miterlimit="10" stroke-linecap="round" stroke-linejoin="round"></path><path d="M4.173 8h-.84c-.467 0-.747-.28-.747-.747 0-.467.374-.747.747-.747h.84c.467 0 .747.374.747.747.093.467-.28.747-.747.747zM12.76 8h-.84a.736.736 0 01-.747-.747c0-.467.373-.747.746-.747h.84c.467 0 .747.374.747.747.094.467-.28.747-.747.747zM6.6 7.16h2.8" stroke="#373737" stroke-miterlimit="10" stroke-linecap="round" stroke-linejoin="round"></path></svg>